<svg xmlns="http://www.w3.org/2000/svg" xmlns:xlink="http://www.w3.org/1999/xlink" width="145" zoomAndPan="magnify" viewBox="0 0 108.75 31.5" height="42" preserveAspectRatio="xMidYMid meet" version="1.0"><defs><g/><clipPath id="93a80a06d4"><path d="M 0.726562 0 L 107.777344 0 L 107.777344 31.007812 L 0.726562 31.007812 Z M 0.726562 0 " clip-rule="nonzero"/></clipPath><clipPath id="7c7615eb2d"><path d="M 49 6 L 107.777344 6 L 107.777344 30.765625 L 49 30.765625 Z M 49 6 " clip-rule="nonzero"/></clipPath><clipPath id="39f074e778"><path d="M 1 4.1875 L 27 4.1875 L 27 30.765625 L 1 30.765625 Z M 1 4.1875 " clip-rule="nonzero"/></clipPath></defs><g clip-path="url(#93a80a06d4)"><path fill="#ffffff" d="M 0.726562 0 L 107.777344 0 L 107.777344 31.007812 L 0.726562 31.007812 Z M 0.726562 0 " fill-opacity="1" fill-rule="nonzero"/></g><path fill="#076cd7" d="M 39.136719 24.894531 C 35.925781 24.894531 33.46875 24.144531 31.765625 22.644531 C 30.058594 21.128906 29.207031 18.886719 29.207031 15.921875 C 29.207031 12.96875 30.058594 10.738281 31.765625 9.222656 C 33.46875 7.703125 35.925781 6.953125 39.136719 6.972656 L 47.898438 7.019531 L 47.898438 10.183594 L 39.40625 10.183594 C 37.296875 10.183594 35.730469 10.636719 34.707031 11.542969 C 33.6875 12.453125 33.175781 13.910156 33.175781 15.921875 C 33.175781 17.929688 33.6875 19.398438 34.707031 20.320312 C 35.730469 21.226562 37.296875 21.679688 39.40625 21.679688 L 48.144531 21.679688 L 48.144531 24.894531 Z M 39.136719 24.894531 " fill-opacity="1" fill-rule="nonzero"/><g clip-path="url(#7c7615eb2d)"><path fill="#ffffff" d="M 49.976562 24.601562 L 49.976562 11.902344 L 59.625 11.902344 C 61.046875 11.902344 62.09375 12.265625 62.761719 12.988281 C 63.429688 13.695312 63.765625 14.632812 63.765625 15.796875 L 63.765625 18.4375 L 60.164062 18.4375 L 60.164062 16.242188 C 60.164062 15.253906 59.675781 14.761719 58.695312 14.761719 L 53.578125 14.761719 L 53.578125 24.601562 Z M 68.554688 30.148438 L 68.554688 27.3125 L 75.953125 27.3125 C 76.933594 27.3125 77.421875 26.8125 77.421875 25.808594 L 77.421875 24.601562 L 69.855469 24.601562 C 68.417969 24.601562 67.363281 24.238281 66.695312 23.515625 C 66.042969 22.792969 65.714844 21.855469 65.714844 20.707031 L 65.714844 11.902344 L 69.265625 11.902344 L 69.265625 20.285156 C 69.265625 21.273438 69.757812 21.765625 70.734375 21.765625 L 77.300781 21.765625 L 77.300781 11.902344 L 80.972656 11.902344 L 80.972656 26.253906 C 80.972656 27.421875 80.640625 28.355469 79.96875 29.0625 C 79.300781 29.789062 78.253906 30.148438 76.835938 30.148438 Z M 90.144531 24.722656 C 87.957031 24.722656 86.25 24.183594 85.027344 23.097656 C 83.800781 21.996094 83.1875 20.382812 83.1875 18.265625 C 83.1875 16.128906 83.800781 14.515625 85.027344 13.429688 C 86.25 12.328125 87.957031 11.777344 90.144531 11.777344 L 94.675781 11.777344 C 96.863281 11.777344 98.570312 12.328125 99.796875 13.429688 C 101.019531 14.515625 101.632812 16.128906 101.632812 18.265625 C 101.632812 20.382812 101.019531 21.996094 99.796875 23.097656 C 98.570312 24.183594 96.863281 24.722656 94.675781 24.722656 Z M 90.144531 21.890625 L 94.675781 21.890625 C 95.738281 21.890625 96.546875 21.59375 97.101562 21 C 97.671875 20.410156 97.957031 19.496094 97.957031 18.265625 C 97.957031 17.015625 97.671875 16.09375 97.101562 15.503906 C 96.546875 14.910156 95.738281 14.613281 94.675781 14.613281 L 90.144531 14.613281 C 89.082031 14.613281 88.265625 14.910156 87.695312 15.503906 C 87.140625 16.09375 86.863281 17.015625 86.863281 18.265625 C 86.863281 19.496094 87.140625 20.410156 87.695312 21 C 88.265625 21.59375 89.082031 21.890625 90.144531 21.890625 Z M 103.84375 24.601562 L 103.84375 6.96875 L 107.394531 6.96875 L 107.394531 24.601562 Z M 103.84375 24.601562 " fill-opacity="1" fill-rule="nonzero"/></g><path fill="#076cd7" d="M 84.488281 26.75 L 99.757812 26.75 L 99.757812 29.53125 L 84.488281 29.53125 Z M 84.488281 26.75 " fill-opacity="1" fill-rule="nonzero"/><path fill="#076cd7" d="M 18.558594 17.015625 L 18.558594 22.113281 L 13.570312 22.113281 C 12.585938 22.113281 11.621094 21.816406 10.800781 21.253906 C 9.984375 20.695312 9.34375 19.898438 8.96875 18.96875 C 8.589844 18.035156 8.492188 17.011719 8.683594 16.023438 C 8.875 15.03125 9.351562 14.125 10.046875 13.410156 C 10.746094 12.699219 11.632812 12.214844 12.597656 12.015625 C 13.566406 11.820312 14.566406 11.921875 15.480469 12.304688 C 16.390625 12.691406 17.167969 13.347656 17.714844 14.183594 C 18.261719 15.023438 18.554688 16.007812 18.554688 17.015625 M 13.636719 8.519531 C 12.546875 8.488281 11.460938 8.671875 10.441406 9.070312 C 9.417969 9.464844 8.484375 10.0625 7.691406 10.828125 C 6.898438 11.59375 6.257812 12.511719 5.8125 13.53125 C 5.363281 14.550781 5.117188 15.648438 5.085938 16.765625 C 5.050781 17.878906 5.234375 18.992188 5.621094 20.035156 C 6.007812 21.078125 6.59375 22.035156 7.34375 22.847656 C 8.089844 23.660156 8.988281 24.3125 9.984375 24.769531 C 10.980469 25.226562 12.054688 25.480469 13.144531 25.511719 L 21.878906 25.511719 L 21.878906 17.117188 C 21.878906 12.429688 18.21875 8.554688 13.636719 8.519531 Z M 13.636719 8.519531 " fill-opacity="1" fill-rule="nonzero"/><g clip-path="url(#39f074e778)"><path fill="#ffffff" d="M 23.007812 8.082031 C 20.917969 5.914062 18.167969 4.566406 15.226562 4.257812 C 12.285156 3.949219 9.332031 4.703125 6.867188 6.390625 C 7.011719 6.554688 7.132812 6.738281 7.234375 6.9375 C 9.578125 5.34375 12.378906 4.632812 15.167969 4.929688 C 17.957031 5.222656 20.566406 6.503906 22.550781 8.554688 C 27.300781 13.46875 27.300781 21.476562 22.550781 26.394531 C 17.800781 31.316406 10.074219 31.316406 5.324219 26.394531 C 3.34375 24.339844 2.109375 21.636719 1.824219 18.746094 C 1.542969 15.859375 2.226562 12.957031 3.765625 10.527344 C 3.578125 10.425781 3.398438 10.296875 3.238281 10.148438 C -0.667969 16.265625 0.953125 24.511719 6.859375 28.5625 C 12.765625 32.609375 20.726562 30.929688 24.632812 24.8125 C 26.265625 22.253906 26.996094 19.195312 26.699219 16.144531 C 26.402344 13.097656 25.097656 10.25 23.007812 8.082031 Z M 23.007812 8.082031 " fill-opacity="1" fill-rule="nonzero"/></g><path fill="#076cd7" d="M 4.171875 7.335938 C 4.320312 7.160156 4.507812 7.042969 4.714844 6.996094 C 4.925781 6.945312 5.140625 6.96875 5.335938 7.0625 C 5.53125 7.15625 5.695312 7.316406 5.816406 7.515625 C 5.933594 7.71875 5.996094 7.960938 5.996094 8.203125 C 5.996094 8.449219 5.933594 8.6875 5.816406 8.890625 C 5.699219 9.09375 5.535156 9.253906 5.339844 9.347656 C 5.144531 9.441406 4.929688 9.46875 4.722656 9.417969 C 4.515625 9.371094 4.324219 9.253906 4.171875 9.082031 L 4.171875 9.078125 C 3.96875 8.847656 3.859375 8.535156 3.859375 8.207031 C 3.859375 7.878906 3.96875 7.566406 4.171875 7.335938 Z M 4.171875 7.335938 " fill-opacity="1" fill-rule="nonzero"/><g fill="#076cd7" fill-opacity="1"><g transform="translate(6.777285, 13.312688)"><g><path d="M 1.34375 0.078125 C 1.125 0.078125 0.9375 0 0.78125 -0.15625 C 0.625 -0.3125 0.546875 -0.507812 0.546875 -0.75 C 0.546875 -0.976562 0.625 -1.164062 0.78125 -1.3125 C 0.9375 -1.46875 1.125 -1.546875 1.34375 -1.546875 C 1.5625 -1.546875 1.742188 -1.46875 1.890625 -1.3125 C 2.046875 -1.164062 2.125 -0.976562 2.125 -0.75 C 2.125 -0.507812 2.046875 -0.3125 1.890625 -0.15625 C 1.742188 0 1.5625 0.078125 1.34375 0.078125 Z M 1.34375 0.078125 "/></g></g></g></svg>