<svg width="250" height="92" viewBox="0 0 250 92" fill="none" xmlns="http://www.w3.org/2000/svg">
<path d="M112.553 91.5C110.153 91.5 108.203 90.55 106.703 88.65C105.203 86.75 104.453 84.2 104.453 81C104.453 77.7 105.203 75.15 106.703 73.35C108.203 71.55 110.153 70.65 112.553 70.65C114.953 70.65 116.903 71.55 118.403 73.35C119.903 75.15 120.653 77.7 120.653 81C120.653 84.2 119.903 86.75 118.403 88.65C116.903 90.55 114.953 91.5 112.553 91.5ZM72.6533 89.2V28.9H85.4533V66.8H86.4533L98.5533 28.9H110.053L114.353 43.15L120.053 28.9H130.653L118.853 66.8H117.853L122.153 81C123.453 84.8 124.336 87.7333 124.803 89.8H125.753L135.553 68.2V28.9H148.453V89.2H137.953L127.353 66.3L123.653 74.8C121.753 78.8 120.436 81.8333 119.703 83.9H118.553L113.853 72.8L108.053 89.2H72.6533ZM192.835 90.1C188.435 90.1 184.685 88.8833 181.585 86.45C178.485 84.0167 176.935 80.7667 176.935 76.7C176.935 72.6333 178.485 69.3833 181.585 66.95C184.685 64.5167 188.435 63.3 192.835 63.3C196.235 63.3 199.135 63.85 201.535 64.95V55.6C201.535 50.8 200.035 47.1167 197.035 44.55C194.035 41.9833 190.285 40.7 185.785 40.7C182.285 40.7 179.285 41.65 176.785 43.55C174.285 45.45 172.635 47.95 171.835 51.05H159.235C159.735 47.25 161.418 43.8333 164.285 40.8C167.152 37.7667 170.835 35.5167 175.335 34.05C179.835 32.5833 184.785 31.85 190.185 31.85C197.885 31.85 204.085 33.7833 208.785 37.65C213.485 41.5167 215.835 46.7 215.835 53.2V89.2H203.835V80.5C201.535 83.4 198.818 85.5 195.685 86.8C192.552 88.1 189.135 88.75 185.435 88.75H184.435L192.835 90.1ZM192.835 79.9C195.235 79.9 197.218 79.15 198.785 77.65C200.352 76.15 201.135 74.2333 201.135 71.9V69.7C199.435 68.7 197.435 68.2 195.135 68.2C192.535 68.2 190.485 68.9167 188.985 70.35C187.485 71.7833 186.735 73.6667 186.735 76C186.735 77.3333 187.168 78.4333 188.035 79.3C188.902 80.1667 190.585 80.6 193.085 80.6L192.835 79.9Z" fill="white"/>
<path d="M249.5 89.2H221.7V28.9H249.5V40H234.3V55.1H247.6V66.2H234.3V89.2H249.5Z" fill="white"/>
<path d="M56.4453 59.8C56.4453 75.9 43.8453 88.9 28.2453 88.9C12.6453 88.9 -0.0546875 75.9 -0.0546875 59.8C-0.0546875 43.7 12.6453 30.7 28.2453 30.7C43.8453 30.7 56.4453 43.7 56.4453 59.8Z" fill="white"/>
<path d="M43.033 последующих 28.5C43.033 20.3 36.433 13.7 28.233 13.7C20.033 13.7 13.433 20.3 13.433 28.5V89.2H0.632996V28.5C0.632996 12.9 13.133 0.499998 28.233 0.499998C43.333 0.499998 55.833 12.9 55.833 28.5V89.2H43.033V28.5Z" fill="#007BFF"/>
<path d="M6.31158 20.6C6.31158 24.3 9.31158 27.3 13.0116 27.3C16.7116 27.3 19.7116 24.3 19.7116 20.6C19.7116 16.9 16.7116 13.9 13.0116 13.9C9.31158 13.9 6.31158 16.9 6.31158 20.6Z" fill="#007BFF"/>
</svg>
